# xmcd
#
# Track frame offsets: 
#        150
#        17541
#        40255
#        65784
#        82723
#        104431
#        119103
#        136269
#        155200
#        174262
#        196788
#        210452
#        233262
#        250987
#        268761
#        292811
#
# Disc length: 4178 seconds
#
# Revision: 0
# Processed by: cddbd v1.5.1PL2 Copyright (c) Steve Scherf et al.
# Submitted via: ExactAudioCopy v0.95b4
#
DISCID=d7105010
DTITLE=Charlie Erwin and Various Artists - A Dream Come True (...The Top
DTITLE=hand's Nightmare ) Volume 1
DYEAR=2001
DGENRE=Country Swing
TTITLE0=The Kind of Love I Can't Forget
TTITLE1=All of Me
TTITLE2=Keeper of My Heart
TTITLE3=Little Red Wagon
TTITLE4=Mexicali Rose
TTITLE5=Shame On You
TTITLE6=Bring It On Down to My House
TTITLE7=My Adobe Hacienda
TTITLE8=Across The Alley
TTITLE9=Midnight in Old Amarillo
TTITLE10=I'm Gonna Be Boss From Now On
TTITLE11=Deep Water
TTITLE12=Mr. Steel Guitar
TTITLE13=Rosetta
TTITLE14=Blue Spanish Eyes
TTITLE15=Paul Jones Medley
EXTD=
EXTT0=
EXTT1=
EXTT2=
EXTT3=
EXTT4=
EXTT5=
EXTT6=
EXTT7=
EXTT8=
EXTT9=
EXTT10=
EXTT11=
EXTT12=
EXTT13=
EXTT14=
EXTT15=
PLAYORDER=
